{
  "accessors": [
    {
      "bufferView": 2,
      "componentType": 5126,
      "count": 8249,
      "max": [
        0.9872310161590576,
        0.9872310161590576,
        0.9975767135620117
      ],
      "min": [
        -0.9872305393218994,
        -0.9872307181358337,
        -0.9975767135620117
      ],
      "type": "VEC3"
    },
    {
      "bufferView": 2,
      "byteOffset": 98988,
      "componentType": 5126,
      "count": 8249,
      "max": [
        1.0,
        1.0,
        1.0
      ],
      "min": [
        -1.0,
        -1.0,
        -1.0
      ],
      "type": "VEC3"
    },
    {
      "bufferView": 1,
      "componentType": 5126,
      "count": 8249,
      "max": [
        1.0000001192092896,
        1.0000001192092896
      ],
      "min": [
        0.0,
        0.0
      ],
      "type": "VEC2"
    },
    {
      "bufferView": 0,
      "componentType": 5125,
      "count": 47616,
      "type": "SCALAR"
    },
    {
      "bufferView": 2,
      "byteOffset": 197976,
      "componentType": 5126,
      "count": 7110,
      "max": [
        1.0001705884933472,
        1.0001695156097412,
        0.24636200070381165
      ],
      "min": [
        -1.0001705884933472,
        -1.0001696348190308,
        -0.24636200070381165
      ],
      "type": "VEC3"
    },
    {
      "bufferView": 2,
      "byteOffset": 283296,
      "componentType": 5126,
      "count": 7110,
      "max": [
        0.8283678889274597,
        0.8283674716949463,
        1.0
      ],
      "min": [
        -0.8283678889274597,
        -0.8283675312995911,
        -1.0
      ],
      "type": "VEC3"
    },
    {
      "bufferView": 1,
      "byteOffset": 65992,
      "componentType": 5126,
      "count": 7110,
      "max": [
        0.8832734227180481,
        0.5807119011878967
      ],
      "min": [
        0.4857631027698517,
        0.08958186209201813
      ],
      "type": "VEC2"
    },
    {
      "bufferView": 0,
      "byteOffset": 190464,
      "componentType": 5125,
      "count": 38568,
      "type": "SCALAR"
    },
    {
      "bufferView": 2,
      "byteOffset": 368616,
      "componentType": 5126,
      "count": 7154,
      "max": [
        0.9840433597564697,
        0.9713001251220703,
        0.2463511973619461
      ],
      "min": [
        -0.9840433597564697,
        -0.9967846870422363,
        -0.2463511973619461
      ],
      "type": "VEC3"
    },
    {
      "bufferView": 2,
      "byteOffset": 454464,
      "componentType": 5126,
      "count": 7154,
      "max": [
        0.8015211820602417,
        0.8286770582199097,
        1.0
      ],
      "min": [
        -0.8015184998512268,
        -0.8270980715751648,
        -1.0
      ],
      "type": "VEC3"
    },
    {
      "bufferView": 1,
      "byteOffset": 122872,
      "componentType": 5126,
      "count": 7154,
      "max": [
        0.8832734227180481,
        0.6506890058517456
      ],
      "min": [
        0.4473700523376465,
        0.08958186209201813
      ],
      "type": "VEC2"
    },
    {
      "bufferView": 0,
      "byteOffset": 344736,
      "componentType": 5125,
      "count": 38406,
      "type": "SCALAR"
    },
    {
      "bufferView": 2,
      "byteOffset": 540312,
      "componentType": 5126,
      "count": 7074,
      "max": [
        0.9840433597564697,
        0.9713001251220703,
        0.2463511973619461
      ],
      "min": [
        -0.9840433597564697,
        -0.9967846870422363,
        -0.2463511973619461
      ],
      "type": "VEC3"
    },
    {
      "bufferView": 2,
      "byteOffset": 625200,
      "componentType": 5126,
      "count": 7074,
      "max": [
        0.8015211820602417,
        0.8286770582199097,
        1.0
      ],
      "min": [
        -0.8015184998512268,
        -0.8270980715751648,
        -1.0
      ],
      "type": "VEC3"
    },
    {
      "bufferView": 1,
      "byteOffset": 180104,
      "componentType": 5126,
      "count": 7074,
      "max": [
        0.8832734227180481,
        0.6506890058517456
      ],
      "min": [
        0.4473700523376465,
        0.08958186209201813
      ],
      "type": "VEC2"
    },
    {
      "bufferView": 0,
      "byteOffset": 498360,
      "componentType": 5125,
      "count": 38406,
      "type": "SCALAR"
    }
  ],
  "asset": {
    "extras": {
      "author": "vslite (https://sketchfab.com/vslite)",
      "license": "CC-BY-4.0 (http://creativecommons.org/licenses/by/4.0/)",
      "source": "https://sketchfab.com/3d-models/blockhole-event-horizon-a4dc387e763f4f0fbac7a2c6fcb6aca6",
      "title": "Blockhole, Event horizon"
    },
    "generator": "Sketchfab-15.53.0",
    "version": "2.0"
  },
  "bufferViews": [
    {
      "buffer": 0,
      "byteLength": 651984,
      "name": "floatBufferViews",
      "target": 34963
    },
    {
      "buffer": 0,
      "byteLength": 236696,
      "byteOffset": 651984,
      "byteStride": 8,
      "name": "floatBufferViews",
      "target": 34962
    },
    {
      "buffer": 0,
      "byteLength": 710088,
      "byteOffset": 888680,
      "byteStride": 12,
      "name": "floatBufferViews",
      "target": 34962
    }
  ],
  "buffers": [
    {
      "byteLength": 1598768,
      "uri": "scene.bin"
    }
  ],
  "extensionsUsed": [
    "KHR_materials_transmission",
    "KHR_materials_specular",
    "KHR_materials_emissive_strength"
  ],
  "images": [
    {
      "uri": "textures/AccrationDisk_baseColor.png"
    },
    {
      "uri": "textures/AccrationDisk_emissive.jpeg"
    }
  ],
  "materials": [
    {
      "alphaMode": "BLEND",
      "extensions": {
        "KHR_materials_specular": {
          "specularColorFactor": [
            1.0,
            1.0,
            1.0
          ],
          "specularFactor": 0.0
        },
        "KHR_materials_transmission": {
          "transmissionFactor": 1.0
        }
      },
      "name": "Material",
      "pbrMetallicRoughness": {
        "baseColorFactor": [
          0.006195424770492917,
          0.005286759028053844,
          0.005286759028053844,
          0.25
        ],
        "roughnessFactor": 0.8040408205773457
      }
    },
    {
      "alphaMode": "BLEND",
      "emissiveFactor": [
        1.0,
        1.0,
        1.0
      ],
      "emissiveTexture": {
        "index": 1
      },
      "extensions": {
        "KHR_materials_emissive_strength": {
          "emissiveStrength": 2.4357584525631863
        }
      },
      "name": "AccrationDisk",
      "pbrMetallicRoughness": {
        "baseColorFactor": [
          0.0,
          0.0,
          0.0,
          1.0
        ],
        "baseColorTexture": {
          "index": 0
        },
        "metallicFactor": 0.0
      }
    }
  ],
  "meshes": [
    {
      "name": "Singularity_Material_0",
      "primitives": [
        {
          "attributes": {
            "NORMAL": 1,
            "POSITION": 0,
            "TEXCOORD_0": 2
          },
          "indices": 3,
          "material": 0,
          "mode": 4
        }
      ]
    },
    {
      "name": "Disc1_AccrationDisk_0",
      "primitives": [
        {
          "attributes": {
            "NORMAL": 5,
            "POSITION": 4,
            "TEXCOORD_0": 6
          },
          "indices": 7,
          "material": 1,
          "mode": 4
        }
      ]
    },
    {
      "name": "Disc3_AccrationDisk_0",
      "primitives": [
        {
          "attributes": {
            "NORMAL": 9,
            "POSITION": 8,
            "TEXCOORD_0": 10
          },
          "indices": 11,
          "material": 1,
          "mode": 4
        }
      ]
    },
    {
      "name": "Disc2_AccrationDisk_0",
      "primitives": [
        {
          "attributes": {
            "NORMAL": 13,
            "POSITION": 12,
            "TEXCOORD_0": 14
          },
          "indices": 15,
          "material": 1,
          "mode": 4
        }
      ]
    }
  ],
  "nodes": [
    {
      "children": [
        1
      ],
      "matrix": [
        1.0,
        0.0,
        0.0,
        0.0,
        0.0,
        2.220446049250313e-16,
        -1.0,
        0.0,
        0.0,
        1.0,
        2.220446049250313e-16,
        0.0,
        0.0,
        0.0,
        0.0,
        1.0
      ],
      "name": "Sketchfab_model"
    },
    {
      "children": [
        2
      ],
      "matrix": [
        0.009999999776482582,
        0.0,
        0.0,
        0.0,
        0.0,
        0.0,
        0.009999999776482582,
        0.0,
        0.0,
        -0.009999999776482582,
        0.0,
        0.0,
        0.0,
        0.0,
        0.0,
        1.0
      ],
      "name": "28f8335f8ae54a969c6f17c768359fbc.fbx"
    },
    {
      "children": [
        3,
        5,
        7,
        9
      ],
      "name": "RootNode"
    },
    {
      "children": [
        4
      ],
      "matrix": [
        23.10417366027832,
        0.0,
        0.0,
        0.0,
        -0.0,
        -3.7641476695194003e-06,
        -23.104173660278015,
        0.0,
        0.0,
        23.104173660278015,
        -3.7641476695194003e-06,
        0.0,
        -2.06487516152265e-06,
        -3.8317270423249283e-07,
        4.00202588934917e-06,
        1.0
      ],
      "name": "Singularity"
    },
    {
      "mesh": 0,
      "name": "Singularity_Material_0"
    },
    {
      "children": [
        6
      ],
      "matrix": [
        100.0,
        0.0,
        0.0,
        0.0,
        0.0,
        -1.629206793918314e-05,
        -99.99999999999868,
        0.0,
        0.0,
        99.99999999999868,
        -1.629206793918314e-05,
        0.0,
        0.0,
        0.0,
        0.0,
        1.0
      ],
      "name": "Disc1"
    },
    {
      "mesh": 1,
      "name": "Disc1_AccrationDisk_0"
    },
    {
      "children": [
        8
      ],
      "matrix": [
        100.0,
        0.0,
        0.0,
        0.0,
        0.0,
        -1.629206793918314e-05,
        -99.99999999999868,
        0.0,
        0.0,
        99.99999999999868,
        -1.629206793918314e-05,
        0.0,
        0.0,
        0.0,
        0.0,
        1.0
      ],
      "name": "Disc3"
    },
    {
      "mesh": 2,
      "name": "Disc3_AccrationDisk_0"
    },
    {
      "children": [
        10
      ],
      "matrix": [
        100.0,
        0.0,
        0.0,
        0.0,
        0.0,
        -1.629206793918314e-05,
        -99.99999999999868,
        0.0,
        0.0,
        99.99999999999868,
        -1.629206793918314e-05,
        0.0,
        0.0,
        0.0,
        0.0,
        1.0
      ],
      "name": "Disc2"
    },
    {
      "mesh": 3,
      "name": "Disc2_AccrationDisk_0"
    }
  ],
  "samplers": [
    {
      "magFilter": 9729,
      "minFilter": 9987,
      "wrapS": 10497,
      "wrapT": 10497
    }
  ],
  "scene": 0,
  "scenes": [
    {
      "name": "Sketchfab_Scene",
      "nodes": [
        0
      ]
    }
  ],
  "textures": [
    {
      "sampler": 0,
      "source": 0
    },
    {
      "sampler": 0,
      "source": 1
    }
  ]
}
